<svg width="38" height="38" viewBox="0 0 38 38" fill="none" xmlns="http://www.w3.org/2000/svg">
<circle cx="19" cy="19" r="19" fill="white"/>
<path d="M15.6666 19C15.6666 19.221 15.7544 19.433 15.9107 19.5892C16.067 19.7455 16.2789 19.8333 16.5 19.8333H21.5C21.721 19.8333 21.9329 19.7455 22.0892 19.5892C22.2455 19.433 22.3333 19.221 22.3333 19C22.3333 18.779 22.2455 18.567 22.0892 18.4107C21.9329 18.2544 21.721 18.1666 21.5 18.1666H16.5C16.2789 18.1666 16.067 18.2544 15.9107 18.4107C15.7544 18.567 15.6666 18.779 15.6666 19ZM17.3333 21.5H14.8333C14.1703 21.5 13.5344 21.2366 13.0655 20.7677C12.5967 20.2989 12.3333 19.663 12.3333 19C12.3333 18.3369 12.5967 17.7011 13.0655 17.2322C13.5344 16.7634 14.1703 16.5 14.8333 16.5H17.3333C17.5543 16.5 17.7663 16.4122 17.9225 16.2559C18.0788 16.0996 18.1666 15.8877 18.1666 15.6666C18.1666 15.4456 18.0788 15.2337 17.9225 15.0774C17.7663 14.9211 17.5543 14.8333 17.3333 14.8333H14.8333C13.7282 14.8333 12.6684 15.2723 11.887 16.0537C11.1056 16.8351 10.6666 17.8949 10.6666 19C10.6666 20.105 11.1056 21.1649 11.887 21.9463C12.6684 22.7277 13.7282 23.1666 14.8333 23.1666H17.3333C17.5543 23.1666 17.7663 23.0788 17.9225 22.9226C18.0788 22.7663 18.1666 22.5543 18.1666 22.3333C18.1666 22.1123 18.0788 21.9003 17.9225 21.7441C17.7663 21.5878 17.5543 21.5 17.3333 21.5ZM23.1666 14.8333H20.6666C20.4456 14.8333 20.2337 14.9211 20.0774 15.0774C19.9211 15.2337 19.8333 15.4456 19.8333 15.6666C19.8333 15.8877 19.9211 16.0996 20.0774 16.2559C20.2337 16.4122 20.4456 16.5 20.6666 16.5H23.1666C23.8297 16.5 24.4656 16.7634 24.9344 17.2322C25.4032 17.7011 25.6666 18.3369 25.6666 19C25.6666 19.663 25.4032 20.2989 24.9344 20.7677C24.4656 21.2366 23.8297 21.5 23.1666 21.5H20.6666C20.4456 21.5 20.2337 21.5878 20.0774 21.7441C19.9211 21.9003 19.8333 22.1123 19.8333 22.3333C19.8333 22.5543 19.9211 22.7663 20.0774 22.9226C20.2337 23.0788 20.4456 23.1666 20.6666 23.1666H23.1666C24.2717 23.1666 25.3315 22.7277 26.1129 21.9463C26.8943 21.1649 27.3333 20.105 27.3333 19C27.3333 17.8949 26.8943 16.8351 26.1129 16.0537C25.3315 15.2723 24.2717 14.8333 23.1666 14.8333V14.8333Z" fill="#3D3D3D"/>
</svg>
